# xmcd
# Copyright (C) 1995-1998 Ti Kan
#
# Track frame offsets:
#       150
#       20268
#       36278
#       45248
#       66455
#       84608
#       101163
#       138248
#
# Disc length: 2173 seconds
#
# Revision: 0
# Processed by: cddbd v1.5.2PL0 Copyright (c) Steve Scherf et al.
# Submitted via: CD-Import v1.0
#
DISCID=65087b08
DTITLE=Grateful Dead - Aoxomoxoa
DYEAR=1971
DGENRE=
TTITLE0=St. Stephen
TTITLE1=Dupree's Diamond Blues
TTITLE2=Rosemary
TTITLE3=Doin' That Rag
TTITLE4=Mountains Of The Moon
TTITLE5=China Cat Sunflower
TTITLE6=What's Become Of The Baby
TTITLE7=Cosmic Charlie
EXTD=
EXTT0=
EXTT1=
EXTT2=
EXTT3=
EXTT4=
EXTT5=
EXTT6=
EXTT7=
PLAYORDER=
